# xmcd
#
# Track frame offsets:
#	150
#	11479
#	22320
#	34250
#	43554
#	55257
#	67899
#	80015
#	94494
#	109724
#	132528
#	144945
#	163062
#	174017
#	186133
#	198812
#	209841
#	222971
#	232687
#	246491
#	256958
#	269487
#
# Disc length: 3922 seconds
#
# Revision: 0
# Processed by: cddbd v1.5.2PL0 Copyright (c) Steve Scherf et al.
# Submitted via: EasyCDDAExtractor 12.1.0.1
#
DISCID=410f5016
DTITLE=Gloria Lynne - Love Songs
DYEAR=1900
DGENRE=
TTITLE0=One Night
TTITLE1=Perdido
TTITLE2=But Not For Me
TTITLE3=Just In Time
TTITLE4=Be My Love
TTITLE5=Happiness Is Just A Thing Called Joe
TTITLE6=My Reverie
TTITLE7=Am I Blue
TTITLE8=Little Girl Blue
TTITLE9=Without A Song
TTITLE10=Condemned Without Trial
TTITLE11=Dreamy
TTITLE12=Jazz In You
TTITLE13=Love I've Found You
TTITLE14=He Needs Me
TTITLE15=The Lamp Is Low
TTITLE16=Impossible
TTITLE17=This Little Boy Of Me
TTITLE18=I Will Follow You
TTITLE19=You Don't Have To Be A Tower Of Strength
TTITLE20=And This My Beloved
TTITLE21=I'm Glad There Is You
EXTD=
EXTT0=
EXTT1=
EXTT2=
EXTT3=
EXTT4=
EXTT5=
EXTT6=
EXTT7=
EXTT8=
EXTT9=
EXTT10=
EXTT11=
EXTT12=
EXTT13=
EXTT14=
EXTT15=
EXTT16=
EXTT17=
EXTT18=
EXTT19=
EXTT20=
EXTT21=
PLAYORDER=
